<svg width="32" height="32" viewBox="0 0 32 32" fill="none" xmlns="http://www.w3.org/2000/svg">
  <!-- Background circle with gradient -->
  <defs>
    <linearGradient id="bgGradient" x1="0%" y1="0%" x2="100%" y2="100%">
      <stop offset="0%" style="stop-color:#3B82F6;stop-opacity:1" />
      <stop offset="100%" style="stop-color:#1E40AF;stop-opacity:1" />
    </linearGradient>
    <linearGradient id="iconGradient" x1="0%" y1="0%" x2="100%" y2="100%">
      <stop offset="0%" style="stop-color:#FFFFFF;stop-opacity:1" />
      <stop offset="100%" style="stop-color:#E5E7EB;stop-opacity:1" />
    </linearGradient>
  </defs>
  
  <!-- Main circle background -->
  <circle cx="16" cy="16" r="16" fill="url(#bgGradient)"/>
  
  <!-- AI Brain/Head icon -->
  <path d="M16 8C12.5 8 10 10.5 10 14C10 15.5 10.5 16.8 11.2 17.8C11.5 18.2 11.8 18.5 12 18.8C12.2 19.1 12.3 19.4 12.3 19.7C12.3 20.3 11.9 20.7 11.3 20.7C10.7 20.7 10.3 20.3 10.3 19.7C10.3 19.2 10.1 18.8 9.8 18.5C9.2 17.8 8.8 16.9 8.8 16C8.8 13.2 10.7 10.8 13.2 10.2C13.8 10.1 14.4 10 15 10C15.6 10 16.2 10.1 16.8 10.2C19.3 10.8 21.2 13.2 21.2 16C21.2 16.9 20.8 17.8 20.2 18.5C19.9 18.8 19.7 19.2 19.7 19.7C19.7 20.3 19.3 20.7 18.7 20.7C18.1 20.7 17.7 20.3 17.7 19.7C17.7 19.4 17.8 19.1 18 18.8C18.2 18.5 18.5 18.2 18.8 17.8C19.5 16.8 20 15.5 20 14C20 10.5 17.5 8 16 8Z" fill="url(#iconGradient)"/>
  
  <!-- Eyes -->
  <circle cx="14" cy="14" r="1.5" fill="#1E40AF"/>
  <circle cx="18" cy="14" r="1.5" fill="#1E40AF"/>
  
  <!-- Mouth (smile) -->
  <path d="M13 17C13 17 14.5 18.5 16 18.5C17.5 18.5 19 17 19 17" stroke="#1E40AF" stroke-width="1.5" stroke-linecap="round" fill="none"/>
  
  <!-- Sparkle/Star effect -->
  <path d="M24 6L25 8L27 9L25 10L24 12L23 10L21 9L23 8L24 6Z" fill="#FBBF24" opacity="0.8"/>
  <path d="M8 20L8.5 21L9.5 21.5L8.5 22L8 23L7.5 22L6.5 21.5L7.5 21L8 20Z" fill="#FBBF24" opacity="0.6"/>
</svg>
